<svg width="1423" height="996" viewBox="0 0 1423 996" fill="none" xmlns="http://www.w3.org/2000/svg">
<path d="M1422.81 848.81C1421.84 836.687 1416.53 819.308 1396.76 805.428C1361.53 780.691 1286 772.21 1172.25 780.213C1157.59 781.24 1142.33 782.554 1126.53 784.131C1136.46 751.797 1145.02 719.882 1152.05 688.921C1172.49 598.729 1179.74 518.856 1173.6 451.525C1166.48 373.515 1141.47 314.497 1099.25 276.096C1073.13 252.338 1040 236.177 1000.78 228.043C961.3 219.861 916.629 220.088 868.041 228.7C837.016 234.206 804.811 243.045 771.642 255.121C726.545 177.303 675.139 115.753 618.541 71.8807C558.223 25.1061 493.138 0.392944 430.323 0.392944C362.264 0.392944 296.299 24.4133 234.26 71.7971C170.16 120.758 113.272 192.592 65.1813 285.305C-41.5488 491.061 -97.9603 787.762 -97.9603 1143.33H-81.899L-75.8786 1160.49C160.15 1050.46 485.947 944.39 795.64 876.749C835.535 868.041 874.32 860.17 911.727 853.182C921.033 939.923 926.462 1036.34 926.462 1143.33H942.524L947.239 1161.03C1024.6 1133.65 1144.24 1083.28 1248.02 1023.99C1300.68 993.9 1342.05 965.484 1370.96 939.529C1408.07 906.216 1425.04 876.534 1422.81 848.81ZM872.932 265.298C960.678 249.746 1033.99 263.9 1079.37 305.157C1114.53 337.132 1135.49 387.681 1141.66 455.383C1147.4 518.27 1140.44 593.688 1120.97 679.545C1113.01 714.662 1102.98 751.093 1091.18 787.965C1044.3 793.495 993.329 801.128 939.197 810.696C908.173 560.554 845.202 392.925 789.547 287.479C818.23 277.469 846.073 270.052 872.932 265.286V265.298ZM92.7446 304.309C138.348 216.385 191.931 148.541 252.001 102.662C308.692 59.3629 368.689 37.4209 430.323 37.4209C486.724 37.4209 545.612 59.9601 600.614 102.602C651.731 142.234 698.537 197.585 740.11 267.46C715.292 277.84 689.998 289.939 664.31 303.771C587.061 345.35 507.583 401.764 428.084 471.46C341.54 547.319 255.037 638.934 170.958 743.759C90.1127 844.558 10.7904 958.521 -65.2781 1083.11C-59.2992 761.042 -4.97042 492.697 92.7446 304.309ZM789.661 840.366C499.013 903.851 194.097 1001.05 -38.637 1103.81C36.4989 980.797 114.795 868.328 194.542 768.89C277.357 665.642 362.471 575.485 447.524 500.927C525.209 432.831 602.718 377.779 677.895 337.311C705.189 322.62 731.986 309.947 758.15 299.328C759.072 301.036 759.994 302.744 760.917 304.476C815.235 406.709 877.056 570.408 907.479 816.453C869.502 823.536 830.125 831.515 789.641 840.366H789.661ZM1078.16 826.797C1066.88 858.987 1054.33 891.297 1040.68 923.201C1015.4 982.314 987.257 1038.09 958.067 1087.14C956.502 1000.23 951.332 920.477 943.446 847.413C991.06 838.98 1036.18 832.076 1078.16 826.797ZM1351.22 910.313C1324.01 934.739 1284.48 961.817 1233.75 990.807C1151.19 1037.98 1056.24 1080.16 984.49 1108.19C1014.58 1057.64 1043.53 1000.27 1069.49 939.565C1086.03 900.888 1101.02 861.579 1114.16 822.568C1135.11 820.311 1155.17 818.507 1174.21 817.158C1314.6 807.279 1363.43 825.375 1380.04 837.045C1390.18 844.164 1390.67 850.22 1390.82 852.215C1391.33 858.533 1388.49 876.856 1351.22 910.301V910.313Z" fill="#DAD6C5" fill-opacity="0.5"/>
</svg>
